<svg width="248" height="18" viewBox="0 0 248 18" fill="none" xmlns="http://www.w3.org/2000/svg">
<path d="M4.8 7.836V8.844H7.884C7.656 10.152 6.576 11.064 4.896 11.064C3.912 11.064 3.108 10.752 2.484 10.128C1.872 9.504 1.56 8.724 1.56 7.8C1.56 6.876 1.872 6.096 2.484 5.472C3.096 4.836 3.888 4.524 4.848 4.524C6.012 4.524 7.056 5.124 7.536 6.036L8.496 5.472C8.148 4.86 7.644 4.38 6.996 4.008C6.348 3.636 5.64 3.444 4.86 3.444C3.6 3.444 2.544 3.864 1.704 4.716C0.876 5.556 0.456 6.588 0.456 7.8C0.456 9.012 0.876 10.044 1.704 10.896C2.544 11.736 3.6 12.156 4.884 12.156C6.12 12.156 7.116 11.796 7.872 11.076C8.628 10.344 9 9.432 9 8.34V7.836H4.8ZM16.009 9.48C16.033 9.324 16.045 9.168 16.045 9.012C16.045 8.136 15.769 7.392 15.205 6.78C14.653 6.156 13.933 5.844 13.057 5.844C12.133 5.844 11.377 6.144 10.789 6.744C10.201 7.344 9.91303 8.1 9.91303 9C9.91303 9.912 10.213 10.668 10.801 11.268C11.401 11.856 12.181 12.156 13.129 12.156C14.305 12.156 15.181 11.7 15.769 10.8L14.881 10.296C14.521 10.884 13.945 11.172 13.153 11.172C12.013 11.172 11.185 10.548 10.981 9.48H16.009ZM13.057 6.828C14.017 6.828 14.809 7.428 14.989 8.568H10.981C11.161 7.512 11.941 6.828 13.057 6.828ZM20.2331 5.844C19.3571 5.844 18.7091 6.18 18.2891 6.864V6H17.2451V12H18.2891V8.82C18.2891 7.476 18.9851 6.84 20.0291 6.84C20.9531 6.84 21.5171 7.404 21.5171 8.376V12H22.5611V8.316C22.5611 6.792 21.6371 5.844 20.2331 5.844ZM29.7786 9.48C29.8026 9.324 29.8146 9.168 29.8146 9.012C29.8146 8.136 29.5386 7.392 28.9746 6.78C28.4226 6.156 27.7026 5.844 26.8266 5.844C25.9026 5.844 25.1466 6.144 24.5586 6.744C23.9706 7.344 23.6826 8.1 23.6826 9C23.6826 9.912 23.9826 10.668 24.5706 11.268C25.1706 11.856 25.9506 12.156 26.8986 12.156C28.0746 12.156 28.9506 11.7 29.5386 10.8L28.6506 10.296C28.2906 10.884 27.7146 11.172 26.9226 11.172C25.7826 11.172 24.9546 10.548 24.7506 9.48H29.7786ZM26.8266 6.828C27.7866 6.828 28.5786 7.428 28.7586 8.568H24.7506C24.9306 7.512 25.7106 6.828 26.8266 6.828ZM31.6747 7.416C32.1187 7.416 32.4547 7.068 32.4547 6.636C32.4547 6.204 32.1187 5.856 31.6747 5.856C31.2427 5.856 30.8947 6.204 30.8947 6.636C30.8947 7.068 31.2427 7.416 31.6747 7.416ZM31.6747 12.132C32.1187 12.132 32.4547 11.784 32.4547 11.352C32.4547 10.92 32.1187 10.572 31.6747 10.572C31.2427 10.572 30.8947 10.92 30.8947 11.352C30.8947 11.784 31.2427 12.132 31.6747 12.132Z" fill="#667479"/>
<path d="M47.296 3.6L44.896 7.572L42.484 3.6H40.78V12H42.436V6.564L44.8 10.452H44.992L47.356 6.552V12H49V3.6H47.296ZM55.0532 6.708C54.5852 6.12 53.9372 5.832 53.0972 5.832C52.2932 5.832 51.6092 6.144 51.0332 6.756C50.4692 7.368 50.1812 8.112 50.1812 9C50.1812 9.888 50.4692 10.644 51.0332 11.256C51.6092 11.868 52.2932 12.168 53.0972 12.168C53.9372 12.168 54.5852 11.88 55.0532 11.292V12H56.6012V6H55.0532V6.708ZM52.1972 10.224C51.8852 9.9 51.7292 9.492 51.7292 9C51.7292 8.508 51.8852 8.1 52.1972 7.788C52.5092 7.464 52.9052 7.308 53.3852 7.308C53.8652 7.308 54.2612 7.464 54.5732 7.788C54.8972 8.1 55.0532 8.508 55.0532 9C55.0532 9.492 54.8972 9.9 54.5732 10.224C54.2612 10.536 53.8652 10.692 53.3852 10.692C52.9052 10.692 52.5092 10.536 52.1972 10.224ZM59.5529 12V3.24H58.0049V12H59.5529ZM66.8017 9.636C66.8377 9.408 66.8617 9.204 66.8617 9C66.8617 8.1 66.5737 7.356 65.9977 6.744C65.4337 6.132 64.7017 5.832 63.8257 5.832C62.9017 5.832 62.1337 6.132 61.5457 6.744C60.9577 7.344 60.6577 8.1 60.6577 9C60.6577 9.912 60.9577 10.668 61.5577 11.268C62.1577 11.868 62.9497 12.168 63.9457 12.168C65.0977 12.168 65.9737 11.736 66.5617 10.884L65.3137 10.164C65.0137 10.56 64.5577 10.764 63.9697 10.764C63.0457 10.764 62.4817 10.392 62.2777 9.636H66.8017ZM62.2537 8.436C62.4337 7.668 62.9977 7.224 63.8257 7.224C64.5337 7.224 65.1337 7.62 65.3137 8.436H62.2537Z" fill="#667479"/>
<path d="M81.9581 8.748C82.2221 8.484 82.3541 8.16 82.3541 7.788C82.3541 7.416 82.2221 7.092 81.9581 6.84C81.7061 6.576 81.3821 6.444 81.0101 6.444C80.6381 6.444 80.3141 6.576 80.0501 6.84C79.7861 7.092 79.6541 7.416 79.6541 7.788C79.6541 8.16 79.7861 8.484 80.0501 8.748C80.3141 9.012 80.6381 9.144 81.0101 9.144C81.3821 9.144 81.7061 9.012 81.9581 8.748Z" fill="#667479"/>
<path d="M101.62 12L98.488 3.6H97.228L94.096 12H95.284L95.968 10.116H99.748L100.432 12H101.62ZM97.852 4.932L99.364 9.072H96.352L97.852 4.932ZM107.483 7.032C106.967 6.24 106.211 5.844 105.227 5.844C104.375 5.844 103.643 6.144 103.055 6.756C102.467 7.356 102.167 8.088 102.167 8.964C102.167 9.84 102.467 10.572 103.055 11.184C103.643 11.796 104.375 12.096 105.227 12.096C106.199 12.096 106.955 11.7 107.483 10.896V11.748C107.483 12.888 106.727 13.584 105.479 13.584C104.507 13.584 103.847 13.248 103.523 12.576L102.611 13.092C103.103 14.04 104.111 14.556 105.455 14.556C106.295 14.556 107.015 14.304 107.615 13.812C108.215 13.32 108.515 12.636 108.515 11.748V6H107.483V7.032ZM107.483 8.964C107.483 9.576 107.279 10.08 106.871 10.488C106.463 10.896 105.959 11.1 105.347 11.1C104.735 11.1 104.231 10.896 103.823 10.488C103.415 10.08 103.211 9.576 103.211 8.964C103.211 8.364 103.415 7.86 103.823 7.452C104.231 7.044 104.735 6.84 105.347 6.84C105.959 6.84 106.463 7.044 106.871 7.452C107.279 7.86 107.483 8.364 107.483 8.964ZM115.857 9.48C115.881 9.324 115.893 9.168 115.893 9.012C115.893 8.136 115.617 7.392 115.053 6.78C114.501 6.156 113.781 5.844 112.905 5.844C111.981 5.844 111.225 6.144 110.637 6.744C110.049 7.344 109.761 8.1 109.761 9C109.761 9.912 110.061 10.668 110.649 11.268C111.249 11.856 112.029 12.156 112.977 12.156C114.153 12.156 115.029 11.7 115.617 10.8L114.729 10.296C114.369 10.884 113.793 11.172 113.001 11.172C111.861 11.172 111.033 10.548 110.829 9.48H115.857ZM112.905 6.828C113.865 6.828 114.657 7.428 114.837 8.568H110.829C111.009 7.512 111.789 6.828 112.905 6.828ZM117.753 7.416C118.197 7.416 118.533 7.068 118.533 6.636C118.533 6.204 118.197 5.856 117.753 5.856C117.321 5.856 116.973 6.204 116.973 6.636C116.973 7.068 117.321 7.416 117.753 7.416ZM117.753 12.132C118.197 12.132 118.533 11.784 118.533 11.352C118.533 10.92 118.197 10.572 117.753 10.572C117.321 10.572 116.973 10.92 116.973 11.352C116.973 11.784 117.321 12.132 117.753 12.132Z" fill="#667479"/>
<path d="M129.78 12.168C130.836 12.168 131.664 11.772 132.252 10.98C132.84 10.176 133.14 9.12 133.14 7.8C133.14 6.48 132.84 5.424 132.252 4.632C131.664 3.828 130.836 3.432 129.78 3.432C128.736 3.432 127.908 3.828 127.308 4.632C126.72 5.424 126.42 6.48 126.42 7.8C126.42 9.12 126.72 10.176 127.308 10.98C127.908 11.772 128.736 12.168 129.78 12.168ZM131.496 7.8C131.496 9.576 130.896 10.548 129.78 10.548C128.664 10.548 128.076 9.588 128.076 7.8C128.076 6.012 128.664 5.04 129.78 5.04C130.896 5.04 131.496 6.012 131.496 7.8ZM139.288 12V10.404H136.132L137.776 8.76C138.7 7.836 139.156 6.948 139.156 6.072C139.156 5.268 138.88 4.62 138.34 4.152C137.8 3.672 137.14 3.432 136.384 3.432C135.196 3.432 134.14 4.056 133.612 5.208L135.004 6.024C135.304 5.364 135.772 5.04 136.408 5.04C137.044 5.04 137.5 5.472 137.5 6.132C137.5 6.576 137.176 7.14 136.54 7.812L133.672 10.764V12H139.288ZM150.067 5.832C149.275 5.832 148.675 6.12 148.279 6.696C147.931 6.12 147.379 5.832 146.647 5.832C145.891 5.832 145.339 6.096 144.979 6.636V6H143.431V12H144.979V8.628C144.979 7.752 145.423 7.272 146.107 7.272C146.743 7.272 147.115 7.692 147.115 8.412V12H148.663V8.628C148.663 7.752 149.071 7.272 149.779 7.272C150.415 7.272 150.787 7.692 150.787 8.412V12H152.335V8.304C152.335 6.804 151.447 5.832 150.067 5.832ZM158.761 11.256C159.373 10.644 159.685 9.888 159.685 9C159.685 8.112 159.373 7.368 158.761 6.756C158.149 6.144 157.393 5.832 156.505 5.832C155.617 5.832 154.861 6.144 154.249 6.756C153.637 7.368 153.337 8.112 153.337 9C153.337 9.888 153.637 10.644 154.249 11.256C154.861 11.868 155.617 12.168 156.505 12.168C157.393 12.168 158.149 11.868 158.761 11.256ZM155.341 10.188C155.041 9.876 154.885 9.48 154.885 9C154.885 8.52 155.041 8.124 155.341 7.812C155.653 7.5 156.037 7.344 156.505 7.344C156.973 7.344 157.357 7.5 157.669 7.812C157.981 8.124 158.137 8.52 158.137 9C158.137 9.48 157.981 9.876 157.669 10.188C157.357 10.5 156.973 10.656 156.505 10.656C156.037 10.656 155.653 10.5 155.341 10.188ZM164.11 5.832C163.294 5.832 162.694 6.108 162.322 6.672V6H160.774V12H162.322V8.76C162.322 7.764 162.838 7.272 163.642 7.272C164.362 7.272 164.83 7.704 164.83 8.508V12H166.378V8.316C166.378 7.536 166.162 6.936 165.73 6.492C165.31 6.048 164.77 5.832 164.11 5.832ZM171.132 6H169.776V4.32L168.228 4.788V6H167.184V7.488H168.228V9.984C168.228 11.628 169.008 12.24 171.132 12V10.596C170.244 10.644 169.776 10.632 169.776 9.984V7.488H171.132V6ZM175.653 5.832C174.837 5.832 174.237 6.108 173.865 6.672V3.6H172.317V12H173.865V8.76C173.865 7.764 174.381 7.272 175.185 7.272C175.905 7.272 176.373 7.704 176.373 8.508V12H177.921V8.316C177.921 7.536 177.705 6.936 177.273 6.492C176.853 6.048 176.313 5.832 175.653 5.832ZM180.671 7.704C180.671 7.404 180.971 7.212 181.367 7.212C181.811 7.212 182.135 7.416 182.327 7.824L183.647 7.104C183.179 6.288 182.339 5.832 181.367 5.832C180.719 5.832 180.179 6 179.735 6.348C179.303 6.684 179.087 7.152 179.087 7.74C179.087 8.988 180.203 9.36 181.091 9.588C181.703 9.744 182.183 9.924 182.183 10.248C182.183 10.596 181.907 10.764 181.355 10.764C180.743 10.764 180.359 10.5 180.179 9.984L178.835 10.74C179.279 11.688 180.119 12.168 181.355 12.168C182.039 12.168 182.615 12 183.071 11.676C183.539 11.34 183.767 10.86 183.767 10.248C183.779 8.964 182.639 8.544 181.763 8.364C181.151 8.208 180.671 8.028 180.671 7.704Z" fill="#667479"/>
</svg>
